<svg width="300" height="210" viewBox="0 0 924 644" fill="none" xmlns="http://www.w3.org/2000/svg">
<path d="M805.518 582.519C808.21 575.653 813.49 573.829 820.563 576.334L853.628 587.887C854.872 588.308 856.234 588.774 857.223 589.162C864.729 592.105 867.324 598.157 864.381 605.663C861.439 613.17 855.467 615.729 847.961 612.787C846.972 612.399 845.656 611.816 844.457 611.279L812.351 597.282C805.46 594.312 802.849 589.327 805.518 582.519ZM776.657 571.204C779.348 564.338 786.636 560.818 793.153 563.373C799.612 565.905 802.565 573.44 799.874 580.306C797.227 587.056 789.917 590.635 783.458 588.103C776.941 585.548 774.01 577.954 776.657 571.204Z" fill="black"/>
<path d="M775.19 482.926C776.609 475.561 781.726 471.137 790.625 472.852L858.317 485.898C867.216 487.613 870.322 493.622 868.903 500.986C867.483 508.351 862.354 512.836 853.394 511.11L852.719 510.979L852.636 511.409C860.295 516.258 863.82 524.385 861.94 534.143C858.652 551.204 844.372 558.254 821.972 553.937C799.633 549.632 788.923 537.829 792.164 521.014C794.092 511.01 800.298 504.568 808.818 502.964L808.912 502.473L785.776 498.014C776.877 496.299 773.77 490.29 775.19 482.926ZM813.544 514.441C812.266 521.069 817.488 526.34 826.939 528.161C836.329 529.971 843.209 526.969 844.475 520.402C845.74 513.835 840.469 508.491 831.03 506.608C821.505 504.836 814.821 507.813 813.544 514.441Z" fill="black"/>
<path d="M798.804 424.752C797.457 400.977 809.659 384.323 830.189 383.16L875.866 380.572C884.726 380.07 889.991 384.592 890.468 393.016C890.945 401.44 886.225 406.528 877.364 407.03L834.621 409.451C825.136 409.989 820.222 414.962 820.706 423.511C821.19 432.06 826.635 436.446 836.119 435.909L878.863 433.487C887.724 432.985 892.988 437.507 893.466 445.931C893.943 454.355 889.223 459.443 880.362 459.945L834.686 462.533C814.156 463.696 800.151 448.526 798.804 424.752Z" fill="black"/>
<path d="M777.731 319.833C775.496 312.674 777.91 306.355 786.56 303.654L830.469 289.943C838.285 287.502 844.082 290.341 846.466 297.977C848.851 305.614 845.923 311.962 838.048 314.421L836.556 314.887L836.705 315.364C846.995 315.818 853.366 320.703 856.496 330.726C861.116 345.522 854.462 356.504 838.652 361.441L807.63 371.128C798.979 373.829 793.399 370.006 791.163 362.847C788.928 355.688 791.341 349.369 799.992 346.668L825.586 338.676C832.208 336.608 835.296 332.239 833.377 326.094C831.57 320.307 825.996 318.184 819.852 320.103L794.198 328.114C785.548 330.815 779.967 326.992 777.731 319.833Z" fill="black"/>
<path d="M747.864 259.625C741.55 248.764 743.636 235.19 754.388 228.939C765.844 222.28 777.177 227.475 787.416 242.85L795.828 255.455L798.746 253.759C802.744 251.434 803.146 247.152 800.728 242.991C798.718 239.533 796.794 238.338 791.052 236.543C787.166 235.332 784.344 233.213 782.428 229.917C779.381 224.676 780.456 219.063 785.049 216.393C786.4 215.608 787.327 215.213 788.596 214.909C797.534 212.75 808.073 220.432 816.71 235.291C826.322 251.825 824.494 267.708 812.39 274.744L781.375 292.774C773.702 297.234 767.574 294.651 763.868 288.275C760.476 282.44 760.952 276.668 767.028 272.197L766.777 271.764C759.119 272.023 751.884 266.541 747.864 259.625ZM767.475 259.286C770.333 264.203 775.727 267.14 780.104 264.595L783.994 262.334L777.881 253.309C775.106 249.283 771.725 248.067 768.807 249.764C765.565 251.648 765.213 255.395 767.475 259.286Z" fill="black"/>
<path d="M709.445 210.846C694.141 194.183 694.948 175.197 711.473 160.019C728.09 144.757 747.621 145.233 762.292 161.206C776.751 176.949 776.059 196.338 762.388 208.894C757.877 213.038 753.024 212.743 748.711 208.048L724.444 181.626L723.247 182.725C718.276 187.291 717.983 194.179 722.634 199.243C726.396 203.339 730.345 205.144 736.819 205.817C740.386 206.19 742.337 207.113 744.451 209.415C747.791 213.051 748.445 218.476 744.394 222.196C742.967 223.507 741.206 224.361 739.11 224.758C730.32 226.552 718.958 221.203 709.445 210.846ZM734.917 172.516L749.46 188.351C753.721 183.843 753.75 177.962 749.691 173.543C745.76 169.262 739.628 168.868 734.917 172.516Z" fill="black"/>
<path d="M669.237 170.966C663.352 166.318 661.778 159.739 667.396 152.627L708.807 100.196C714.425 93.0846 721.189 93.0913 727.075 97.7399C732.96 102.389 734.534 108.968 728.878 116.128L687.505 168.51C681.887 175.622 675.123 175.615 669.237 170.966Z" fill="black"/>
<path d="M615.648 139.295C590.261 126.071 583.175 103.282 596.92 76.897C610.664 50.5124 633.704 43.487 657.871 56.0766C673.17 64.0462 681.446 75.7569 681.961 90.19C682.125 93.7989 681.426 97.1698 679.953 99.9967C676.834 105.983 670.767 107.755 664.614 104.55C659.515 101.894 657.45 98.2812 657.47 92.0197C657.474 83.3538 654.686 77.8843 648.533 74.6791C638.888 69.6548 628.344 75.0148 620.894 89.3157C613.358 103.783 614.953 115.466 624.709 120.549C631.139 123.898 637.332 122.967 644.409 117.633C649.42 113.83 653.258 113.363 658.191 115.933C664.898 119.427 667.14 125.81 663.878 132.073C662.838 134.069 661.297 135.944 659.397 137.562C648.706 146.721 631.223 147.409 615.648 139.295Z" fill="black"/>
<path d="M512.595 80.5229L518.793 50.0212L517.262 49.7101C511.872 48.6149 508.992 44.2669 510.113 38.7546C511.233 33.2422 515.581 30.3629 520.97 31.4581L522.502 31.7692L523.236 28.1555C524.904 19.9483 530.407 16.0919 538.43 17.7222C546.454 19.3526 550.015 25.0509 548.348 33.2582L547.613 36.8718L552.023 37.7679C557.413 38.8631 560.28 43.2723 559.172 48.7234C558.065 54.1745 553.704 57.1151 548.315 56.0199L543.905 55.1238L538.839 80.0519C538.055 83.9106 539.068 85.5194 541.394 86.311L542.827 86.7934C547.957 88.5375 550.669 91.5121 549.487 97.3307C548.018 104.558 538.819 106.515 529.693 104.661L529.142 104.549C515.545 101.786 509.944 93.5688 512.595 80.5229Z" fill="black"/>
<path d="M438.608 97.5917C431.859 97.4589 427.254 93.2425 427.374 87.1187C427.439 83.8069 428.486 81.452 431.369 77.883L444.311 61.8845L431.833 44.7607C430.008 42.2243 429.182 39.7076 429.243 36.5832C429.371 30.0845 434.652 25.3749 441.589 25.5114C447.15 25.6208 449.86 27.6745 453.49 33.8096L462.079 48.4189L462.579 48.4287L471.737 34.1686C475.476 28.366 478.206 26.2318 483.143 26.3289C490.329 26.4703 494.87 30.8104 494.739 37.4341C494.674 40.746 493.625 43.2259 490.679 46.7936L478.314 62.0533L490.792 79.1771C492.74 81.8409 493.629 84.3589 493.572 87.2333C493.431 94.4194 488.036 98.5641 481.099 98.4277C475.788 98.3232 473.71 95.9068 470.679 91.0963L460.498 74.7679L459.998 74.758L449.822 89.9983C445.635 96.2922 443.294 97.6839 438.608 97.5917Z" fill="black"/>
<path d="M387.579 104.552C365.385 108.948 349.593 98.3776 345.234 76.3677C340.85 54.2352 351.422 37.8056 372.696 33.5918C393.663 29.4388 409.86 40.1205 413.467 58.3293C414.657 64.3375 411.879 68.3283 405.626 69.5669L370.434 76.5371L370.75 78.1312C372.061 84.7525 377.791 88.5875 384.535 87.2517C389.991 86.1709 393.587 83.7384 397.531 78.5609C399.706 75.709 401.51 74.5234 404.576 73.9162C409.419 72.9569 414.391 75.2215 415.46 80.6167C415.836 82.5173 415.649 84.4658 414.897 86.4624C411.854 94.902 401.374 101.82 387.579 104.552ZM368.106 62.8537L389.197 58.6764C387.565 52.6918 382.558 49.6059 376.672 50.7717C370.97 51.901 367.443 56.9322 368.106 62.8537Z" fill="black"/>
<path d="M292.696 137.206C285.847 140.262 279.289 138.603 275.596 130.327L256.854 88.318C253.518 80.841 255.66 74.7521 262.966 71.4926C270.272 68.233 276.919 70.4001 280.281 77.9343L280.917 79.3612L281.374 79.1575C280.623 68.8845 284.732 61.987 294.321 57.7088C308.476 51.3934 320.16 56.7199 326.908 71.8453L340.15 101.525C343.843 109.801 340.697 115.79 333.848 118.846C326.999 121.902 320.441 120.242 316.749 111.966L305.824 87.4801C302.997 81.1445 298.298 78.5875 292.419 81.2104C286.882 83.6806 285.425 89.4638 288.048 95.3427L298.998 119.886C302.69 128.162 299.545 134.151 292.696 137.206Z" fill="black"/>
<path d="M228.397 181.74C211.271 196.525 192.319 195.135 177.656 178.151C162.912 161.073 163.989 141.565 180.405 127.393C196.585 113.425 215.943 114.712 228.074 128.763C232.076 133.399 231.632 138.241 226.807 142.407L199.651 165.85L200.713 167.08C205.124 172.19 212 172.694 217.204 168.202C221.415 164.567 223.34 160.675 224.212 154.225C224.694 150.671 225.677 148.749 228.042 146.707C231.78 143.481 237.222 142.994 240.816 147.157C242.082 148.623 242.881 150.41 243.214 152.517C244.737 161.359 239.042 172.551 228.397 181.74ZM190.868 155.103L207.143 141.053C202.768 136.655 196.89 136.446 192.348 140.366C187.948 144.165 187.367 150.282 190.868 155.103Z" fill="black"/>
<path d="M161.837 257.243C157.39 263.282 150.868 265.077 143.571 259.704L89.567 219.942C82.8732 215.014 81.7665 208.611 86.5098 202.169C91.253 195.727 97.6958 194.882 104.44 199.848L123.163 213.633L123.459 213.23C117.696 204.718 117.952 195.516 124.178 187.06C133.368 174.579 146.084 173.541 159.421 183.361L185.593 202.63C192.891 208.004 193.113 214.764 188.666 220.804C184.219 226.844 177.697 228.639 170.4 223.266L148.808 207.368C143.222 203.255 137.798 203.453 133.981 208.637C130.202 213.771 131.938 219.318 137.122 223.135L158.764 239.069C166.062 244.442 166.284 251.203 161.837 257.243Z" fill="black"/>
<path d="M114.822 299.823L86.7089 286.465L86.0384 287.877C83.6779 292.844 78.7647 294.593 73.6841 292.178C68.6034 289.764 66.8554 284.851 69.2158 279.883L69.8864 278.472L66.5558 276.89C58.9913 273.295 56.573 267.026 60.0868 259.63C63.6007 252.235 69.9888 250.15 77.5533 253.744L80.8839 255.327L82.8152 251.263C85.1756 246.295 90.1453 244.574 95.1695 246.961C100.194 249.348 101.998 254.288 99.6377 259.256L97.7064 263.32L120.682 274.237C124.239 275.927 126.044 275.332 127.372 273.264L128.185 271.99C131.113 267.43 134.653 265.514 140.016 268.062C146.677 271.227 146.363 280.627 142.366 289.038L142.125 289.546C136.17 302.079 126.846 305.537 114.822 299.823Z" fill="black"/>
<path d="M109.591 402.472C108.21 409.843 103.115 414.294 94.2079 412.625L48.9947 404.153C40.9473 402.646 37.1571 397.421 38.6304 389.558C40.1037 381.694 45.6663 377.459 53.7752 378.978L55.311 379.266L55.4031 378.775C46.5259 373.55 43.1885 366.248 45.1222 355.928C47.9767 340.693 59.0025 334.111 75.2817 337.161L107.226 343.146C116.133 344.815 119.271 350.808 117.89 358.18C116.508 365.552 111.414 370.002 102.507 368.333L76.1528 363.395C69.334 362.118 64.5581 364.529 63.3726 370.857C62.2561 376.816 66.1843 381.303 72.5117 382.489L98.9271 387.438C107.835 389.107 110.972 395.1 109.591 402.472Z" fill="black"/>
<path d="M29.7713 435.559C29.6204 442.807 24.2571 448.197 17.3836 448.054C10.5101 447.911 5.37567 442.303 5.52658 435.054C5.6775 427.806 11.0409 422.416 17.9144 422.559C24.7879 422.702 29.9223 428.31 29.7713 435.559ZM106.005 437.146C105.836 445.269 100.927 449.856 92.491 449.68L46.8759 448.73C38.4402 448.555 33.7263 443.768 33.8954 435.645C34.0646 427.522 39.0361 422.937 47.4718 423.112L93.0244 424.061C101.46 424.236 106.174 429.023 106.005 437.146Z" fill="black"/>
<path d="M111.339 493.365C114.508 515.641 103.574 531.085 80.4934 534.368C58.0321 537.563 42.6773 525.48 39.5613 503.576C36.4277 481.548 47.6889 465.742 70.2741 462.529C93.4161 459.237 108.161 471.028 111.339 493.365ZM93.2088 495.944C92.3109 489.633 85.4449 486.633 73.9977 488.261C62.8598 489.845 56.8023 494.747 57.6913 500.997C58.5715 507.185 65.7557 510.203 76.8936 508.619C88.3409 506.99 94.1154 502.318 93.2088 495.944Z" fill="black"/>
<path d="M131.922 571.691C137.523 586.211 135.691 599.177 127.085 608.124C124.489 610.599 122.09 612.194 119.116 613.341C112.352 615.95 106.085 613.075 103.453 606.253C101.091 600.13 102.482 595.574 108.096 591.198C111.858 588.273 113.043 584.4 111.356 580.026C109.265 574.603 104.641 573.037 97.9936 575.601L54.7259 592.291C46.4456 595.485 40.0486 592.795 37.0121 584.922C33.9755 577.05 36.9085 570.761 45.1889 567.567L88.6315 550.81C108.399 543.184 124.027 551.224 131.922 571.691Z" fill="black"/>
</svg>
